<?xml version="1.0" encoding="UTF-8" standalone="no"?><!DOCTYPE svg PUBLIC "-//W3C//DTD SVG 1.1//EN" "http://www.w3.org/Graphics/SVG/1.1/DTD/svg11.dtd"><svg width="100%" height="100%" viewBox="0 0 184 65" version="1.1" xmlns="http://www.w3.org/2000/svg" xmlns:xlink="http://www.w3.org/1999/xlink" xml:space="preserve" xmlns:serif="http://www.serif.com/" style="fill-rule:evenodd;clip-rule:evenodd;stroke-linejoin:round;stroke-miterlimit:2;"><rect x="0" y="0" width="183.333" height="64.583" style="fill:#00ffad;"/><rect id="ArtBoard1" x="0" y="0" width="183.333" height="64.583" style="fill:none;"/><g id="ArtBoard11" serif:id="ArtBoard1"><rect x="3.214" y="1.764" width="61.055" height="61.055" style="fill:#2a2e36;fill-opacity:0;"/><g><path d="M29.236,9.478l-0,-2.691l18.067,-0l10.339,10.321l0,14.232l-0.944,0.944l0.944,0.937l0,21.009l-3.566,3.567l-14.917,-0l-6.306,-6.32l-6.307,6.32l-14.916,-0l-3.567,-3.567l0,-21.009l0.92,-0.913l-0.92,-0.896l0,-21.081l3.573,-3.544l14.909,-0l2.691,2.691Zm8.262,8.262l9.191,9.191l0,-5.285l-3.918,-3.906l-5.273,-0Zm9.191,19.9l-6.085,6.095l3.108,3.108c-0,0 2.977,0 2.977,0l0,-9.203Zm-27.673,-7.964l7.529,0c-0,0 6.308,6.308 6.308,6.308l3.692,-3.692l-14.551,-14.552c-0,-0 -2.978,-0 -2.978,-0l0,11.936Zm0,7.964l0,9.203l2.978,0l3.108,-3.108l-6.086,-6.095Z" style="fill:#2a2e36;"/><path d="M12.713,32.292l-2.034,-1.983l-0,-18.888l2.034,-2.019l12.748,0l21.841,21.841l-0,2.082l-10.396,10.411l5.723,5.723l6.676,-0l-0,-28.898l-5.453,-5.436l-9.966,-0l-2.035,-2.035l0,-3.688l14.37,0l8.806,8.79l0,12.065l-2.035,2.035l2.035,2.018l0,18.837l-2.035,2.034l-12.748,0l-7.391,-7.407l-7.392,7.407l-12.748,0l-2.034,-2.034l-0,-18.837l2.034,-2.018Zm27.531,-0l-17.167,-17.167l-6.676,-0l-0,34.334l6.676,-0l5.722,-5.723l-10.395,-10.411l-0,-1.033l7.057,-0l7.392,7.391l7.391,-7.391Z" style="fill:#00ffad;"/></g><path d="M69.84,18.1l0,6.384l-1.986,0l0,-6.384l1.986,0Zm4.299,0l1.987,0l0,6.384l-1.986,0l-0.001,-6.384Zm-4.299,0l-0.001,-1.986l4.298,0l0.002,1.986l-4.299,0Zm9.534,4.398l-1.986,0l-0,-4.398l1.986,0l-0,4.398Zm-0,-4.398l-0,-1.986l4.301,0l-0,1.986l-4.301,0Zm4.301,0l1.985,0l0,4.398l-1.985,0l-0,-4.398Zm-0,4.398l-0,1.986l-4.301,0l-0,-1.986l4.301,0Zm12.9,-4.45l1.986,-0l-0,6.436l-1.986,0l-0,-2.225l-4.301,-0l0,2.225l-1.986,0l-0,-6.436l1.986,-0l0,2.225l4.301,-0l-0,-2.225Zm-4.301,-0l0,-1.987l4.301,0l-0,1.987l-4.301,-0Zm13.978,4.45l0,1.986l-6.286,0l0,-6.384l1.986,0l0,4.398l4.3,0Zm-4.3,-4.398l0,-1.986l4.302,0l-0.001,1.986l-4.301,0Zm4.301,0l1.986,0l-0,4.398l-1.987,0l0.001,-4.398Zm-36.413,12.023l0,6.384l-1.986,-0l0,-6.384l1.986,-0Zm4.299,-0l1.987,-0l0,6.384l-1.986,-0l-0.001,-6.384Zm-4.299,-0l-0.001,-1.986l4.298,-0l0.002,1.986l-4.299,-0Zm9.534,4.397l-1.986,0l-0,-4.397l1.986,-0l-0,4.397Zm-0,-4.397l-0,-1.986l4.301,-0l-0,1.986l-4.301,-0Zm4.301,-0l1.985,-0l0,4.397l-1.985,0l-0,-4.397Zm-0,4.397l-0,1.987l-4.301,-0l-0,-1.987l4.301,0Zm8.599,0l-1.986,0l-0,-6.443l1.986,-0l0,6.443Zm0,0l5.723,0l-0,1.987l-5.723,-0l0,-1.987Zm13.028,-4.457l-4.41,-0l-0,-1.986l4.41,-0l-0,1.986Zm-0,-0l1.986,-0l-0,2.798l-1.986,0l-0,-2.798Zm9.619,0.007l1.986,0l-0,6.437l-1.986,-0l-0,-2.226l-4.301,0l0,2.226l-1.986,-0l0,-6.437l1.986,0l0,2.225l4.301,0l0,-2.225Zm-4.301,0l0,-1.986l4.301,-0l0,1.986l-4.301,0Zm9.678,0.053l0,4.397l6.287,0l-0,1.987l-8.269,-0l-0,-1.987l-0.004,0l0,-4.397l1.986,-0Zm-0,-0l-0.001,-1.986l6.288,-0l-0,1.986l-6.287,-0Zm28.481,-0l0.001,6.384l-1.987,-0l0,-6.384l1.986,-0Zm4.299,-0l1.988,-0l-0,6.384l-1.986,-0l-0.002,-6.384Zm-4.299,-0l-0,-1.986l4.298,-0l0.001,1.986l-4.299,-0Zm9.679,-0l0,-1.986l6.286,-0l0,1.986l-6.286,-0Zm4.3,4.397l0,1.987l-6.286,-0l-0,-1.987l-0,-4.397l1.986,-0l-0,4.397l4.3,0Zm0,0l0.001,-1.13l-1.965,-0l-0,-1.987l3.951,0l-0,3.117l-1.987,0Zm-89.05,12.023l0.001,-4.398l1.986,0l-0,4.398l-1.987,-0Zm-4.301,-0l4.301,-0l-0,1.986l-4.301,0l0,-1.986Zm0,-0l-1.986,-0.001l0,-1.777l1.986,-0l0,1.778Zm4.302,-4.398l-3.505,0l0,-1.986l3.505,0l-0,1.986Zm9.676,4.398l0,-6.444l1.987,0l-0,6.444l-1.987,-0Zm0,-0l0,1.986l-6.286,0l0,-8.43l1.986,0l0,6.444l4.3,-0Zm14.636,-0l5.723,-0l-0,1.986l-5.723,0l-0,-1.986Zm-0,-0l-1.986,-0l-0,-6.444l1.986,0l-0,6.444Zm35.03,-4.45l1.986,-0l-0,6.436l-1.986,0l-0,-2.225l-4.301,-0l0,2.225l-1.986,0l0,-6.436l1.986,-0l0,2.225l4.301,-0l-0,-2.225Zm-4.301,-0l0,-1.987l4.301,0l-0,1.987l-4.301,-0Zm14.062,-0.008l-4.41,0l-0,-1.986l4.41,0l-0,1.986Zm-0,0l1.986,0l0,2.799l-1.986,-0l-0,-2.799Zm5.318,0.06l0,4.398l6.287,-0l-0,1.986l-8.269,0l-0,-1.986l-0.004,-0l0,-4.398l1.986,0Zm-0,0l-0.001,-1.986l6.288,0l-0,1.986l-6.287,0Zm9.534,0.28l3.951,0l-0,-2.322l1.986,0l0,8.426l-1.986,-0l-0,-4.118l-3.951,0l0,-1.986Zm0,0l-1.986,0l0,-2.322l1.986,0l0,2.322Zm0,1.986l0,4.118l-1.986,-0l0,-4.118l1.986,0Zm-44.069,-21.913l0,1.986l-4.3,0l0,-1.986l4.3,0Zm3.966,-6.444l0,1.986l-4.3,0l0,-1.986l4.3,0Zm0,8.43l-1.44,0l-6.826,-6.857l0,-1.566l1.488,0l6.778,6.832l0,1.591Zm1.088,0l-0,-1.986l2.146,0l-0,1.986l-2.146,0Zm-25.188,7.808l-0,-1.986l3.016,-0l0,1.986l-3.016,-0Zm9.688,-0.089l1.487,0l2.684,2.712l0,1.592l-1.44,-0l-2.731,-2.738l-0,-1.566Zm-2.231,-2.08l0,6.384l-1.986,-0l0,-6.384l1.986,-0Zm28.585,6.383l-1.567,-0l0,-1.486l-0.006,0l0,-6.941l1.986,-0l0,4.904l0.662,-0.681l1.502,-1.541l2.612,-2.682l1.591,-0l0,1.441l-2.687,2.767l2.607,2.627l0,1.592l-1.441,-0l-2.662,-2.678l-2.597,2.678Zm10.891,-8.425l-0,1.986l-3.158,-0l-0,-1.986l3.158,-0Zm2.037,1.986l-0,-1.986l3.158,-0l-0,1.986l-3.158,-0Zm-2.037,4.453l-0,1.987l-3.158,-0l-0,-1.987l3.158,0Zm2.037,1.987l-0,-1.987l3.158,0l-0,1.987l-3.158,-0Zm-2.012,-6.44l1.986,-0l0,4.453l-1.986,0l0,-4.453Zm25.574,6.44l0,-1.987l2.146,0l0,1.987l-2.146,-0Zm-75.12,10.036l0,1.986l-4.3,0l0,-1.986l4.3,-0Zm3.966,-6.444l-0,1.986l-4.3,0l-0,-1.986l4.3,0Zm-0,8.43l-1.44,0l-6.826,-6.857l0,-1.566l1.488,0l6.778,6.832l-0,1.591Zm4.368,-4.215l0,-1.986l3.017,-0l-0,1.986l-3.017,0Zm12.934,2.229l-0,1.986l-4.3,0l-0,-1.986l4.3,-0Zm3.966,-6.444l-0,1.986l-4.301,0l0,-1.986l4.301,0Zm-0,8.43l-1.441,0l-6.825,-6.857l-0,-1.566l1.487,0l6.779,6.832l-0,1.591Zm9.283,-3.226l-4.872,0l-3.48,-3.561l-0,-1.591l8.352,0l0,1.986l-4.918,0l1.095,1.18l3.823,0l-0,1.986Zm0.001,1.232l-0,1.986l-8.353,0l-0,-1.986l8.353,-0Zm15.268,-2.309l1.487,-0l2.685,2.712l-0,1.591l-1.441,0l-2.731,-2.738l-0,-1.565Zm-2.231,-2.081l0,6.384l-1.986,0l0,-6.384l1.986,0Zm26.604,6.384l-0,-1.986l2.145,-0l0,1.986l-2.145,0Z" style="fill:#292e35;"/></g><path d="M0,64.583l0,-64.583l183.333,0l0,64.583l-183.333,0Zm181.25,-62.5l-179.167,0l0,60.417l179.167,0l0,-60.417Z" style="fill:#292e35;"/></svg>